{
    "asset" : {
        "generator" : "Khronos glTF Blender I/O v0.9.36",
        "version" : "2.0"
    },
    "scene" : 0,
    "scenes" : [
        {
            "name" : "Scene",
            "nodes" : [
                5,
                6,
                7,
                8
            ]
        }
    ],
    "nodes" : [
        {
            "scale" : [
                1.000000238418579,
                1,
                1.000000238418579
            ],
            "translation" : [
                -1.2200325727462769e-07,
                2.0172176361083984,
                -4.0978193283081055e-08
            ],
            "name" : "Bone.003",
            "rotation" : [
                -1.7609441727017838e-07,
                0.7325615882873535,
                -0.4534006714820862,
                0.5077218413352966
            ]
        },
        {
            "scale" : [
                1.0000001192092896,
                1.0000001192092896,
                1.0000001192092896
            ],
            "translation" : [
                -8.312363775075937e-08,
                1.7216975688934326,
                -3.5390257835388184e-08
            ],
            "name" : "Bone.002",
            "children" : [
                0
            ],
            "rotation" : [
                0.41093146800994873,
                -0.004929005168378353,
                0.2742525637149811,
                0.8694231510162354
            ]
        },
        {
            "scale" : [
                1.0000001192092896,
                1.000000238418579,
                1
            ],
            "translation" : [
                -2.421438694000244e-08,
                1.0208913087844849,
                -1.862645149230957e-09
            ],
            "name" : "Bone.001",
            "children" : [
                1
            ],
            "rotation" : [
                -0.42560938000679016,
                0.7015278935432434,
                0.5714674592018127,
                0.01184083055704832
            ]
        },
        {
            "scale" : [
                0.9999999403953552,
                1,
                1
            ],
            "name" : "Bone",
            "children" : [
                2
            ],
            "rotation" : [
                0.08190486580133438,
                0.03911333158612251,
                -0.31192323565483093,
                0.9457619786262512
            ]
        },
        {
            "rotation" : [
                0.6309083700180054,
                -0.4116854667663574,
                -0.02922471985220909,
                0.6569746732711792
            ],
            "mesh" : 0,
            "skin" : 0,
            "name" : "Cube",
            "translation" : [
                -0.3721221089363098,
                0.20839178562164307,
                0.7121683359146118
            ],
            "scale" : [
                1,
                4.067909240722656,
                1
            ]
        },
        {
            "translation" : [
                0.002630293369293213,
                -0.21169960498809814,
                0.048908308148384094
            ],
            "name" : "Armature",
            "children" : [
                4,
                3
            ],
            "rotation" : [
                -0.6309083104133606,
                0.41168540716171265,
                0.029224708676338196,
                0.6569746732711792
            ]
        },
        {
            "scale" : [
                0.7712892889976501,
                0.13117414712905884,
                0.7712892889976501
            ],
            "translation" : [
                3.226400136947632,
                0.023836642503738403,
                0.28532928228378296
            ],
            "name" : "Cube.001",
            "mesh" : 1
        },
        {
            "translation" : [
                0,
                10,
                0
            ],
            "name" : "Lamp",
            "rotation" : [
                0.16907575726509094,
                0.7558803558349609,
                -0.27217137813568115,
                0.570947527885437
            ]
        },
        {
            "translation" : [
                7.481131553649902,
                5.34366512298584,
                6.5076398849487305
            ],
            "name" : "Camera",
            "rotation" : [
                0.483536034822464,
                0.33687159419059753,
                -0.20870360732078552,
                0.7804827094078064
            ]
        }
    ],
    "animations" : [
        {
            "channels" : [
                {
                    "target" : {
                        "node" : 4,
                        "path" : "scale"
                    },
                    "sampler" : 0
                },
                {
                    "target" : {
                        "node" : 4,
                        "path" : "translation"
                    },
                    "sampler" : 1
                },
                {
                    "target" : {
                        "node" : 4,
                        "path" : "rotation"
                    },
                    "sampler" : 2
                }
            ],
            "name" : "CubeAction",
            "samplers" : [
                {
                    "input" : 11,
                    "output" : 12,
                    "interpolation" : "STEP"
                },
                {
                    "input" : 11,
                    "output" : 13,
                    "interpolation" : "STEP"
                },
                {
                    "input" : 11,
                    "output" : 14,
                    "interpolation" : "STEP"
                }
            ]
        },
        {
            "channels" : [
                {
                    "target" : {
                        "node" : 6,
                        "path" : "scale"
                    },
                    "sampler" : 0
                },
                {
                    "target" : {
                        "node" : 6,
                        "path" : "translation"
                    },
                    "sampler" : 1
                },
                {
                    "target" : {
                        "node" : 6,
                        "path" : "rotation"
                    },
                    "sampler" : 2
                }
            ],
            "name" : "Cube.001Action",
            "samplers" : [
                {
                    "input" : 11,
                    "output" : 15,
                    "interpolation" : "STEP"
                },
                {
                    "input" : 11,
                    "output" : 16,
                    "interpolation" : "STEP"
                },
                {
                    "input" : 11,
                    "output" : 17,
                    "interpolation" : "STEP"
                }
            ]
        },
        {
            "channels" : [
                {
                    "target" : {
                        "node" : 7,
                        "path" : "scale"
                    },
                    "sampler" : 0
                },
                {
                    "target" : {
                        "node" : 7,
                        "path" : "translation"
                    },
                    "sampler" : 1
                },
                {
                    "target" : {
                        "node" : 7,
                        "path" : "rotation"
                    },
                    "sampler" : 2
                }
            ],
            "name" : "LampAction",
            "samplers" : [
                {
                    "input" : 11,
                    "output" : 18,
                    "interpolation" : "STEP"
                },
                {
                    "input" : 11,
                    "output" : 19,
                    "interpolation" : "STEP"
                },
                {
                    "input" : 11,
                    "output" : 20,
                    "interpolation" : "STEP"
                }
            ]
        },
        {
            "channels" : [
                {
                    "target" : {
                        "node" : 8,
                        "path" : "scale"
                    },
                    "sampler" : 0
                },
                {
                    "target" : {
                        "node" : 8,
                        "path" : "translation"
                    },
                    "sampler" : 1
                },
                {
                    "target" : {
                        "node" : 8,
                        "path" : "rotation"
                    },
                    "sampler" : 2
                }
            ],
            "name" : "CameraAction",
            "samplers" : [
                {
                    "input" : 11,
                    "output" : 21,
                    "interpolation" : "STEP"
                },
                {
                    "input" : 11,
                    "output" : 22,
                    "interpolation" : "STEP"
                },
                {
                    "input" : 11,
                    "output" : 23,
                    "interpolation" : "STEP"
                }
            ]
        }
    ],
    "materials" : [
        {
            "pbrMetallicRoughness" : {},
            "name" : "Box Texture"
        },
        {
            "pbrMetallicRoughness" : {},
            "name" : "Product"
        }
    ],
    "meshes" : [
        {
            "name" : "Cube",
            "primitives" : [
                {
                    "indices" : 5,
                    "material" : 0,
                    "attributes" : {
                        "JOINTS_0" : 0,
                        "COLOR_0" : 1,
                        "NORMAL" : 2,
                        "WEIGHTS_0" : 3,
                        "POSITION" : 4
                    }
                }
            ]
        },
        {
            "name" : "Cube.002",
            "primitives" : [
                {
                    "indices" : 10,
                    "material" : 1,
                    "attributes" : {
                        "NORMAL" : 7,
                        "POSITION" : 8,
                        "TEXCOORD_0" : 9
                    }
                }
            ]
        }
    ],
    "skins" : [
        {
            "name" : "Armature",
            "joints" : [
                3,
                2,
                1,
                0
            ],
            "inverseBindMatrices" : 6
        }
    ],
    "accessors" : [
        {
            "componentType" : 5123,
            "count" : 142,
            "bufferView" : 0,
            "type" : "VEC4"
        },
        {
            "componentType" : 5126,
            "count" : 142,
            "bufferView" : 1,
            "type" : "VEC4"
        },
        {
            "componentType" : 5126,
            "count" : 142,
            "bufferView" : 2,
            "type" : "VEC3"
        },
        {
            "componentType" : 5126,
            "count" : 142,
            "bufferView" : 3,
            "type" : "VEC4"
        },
        {
            "count" : 142,
            "max" : [
                1.0174193382263184,
                0.7260457873344421,
                1.0000005960464478
            ],
            "componentType" : 5126,
            "min" : [
                -1.005073070526123,
                -0.23080265522003174,
                -1.0007957220077515
            ],
            "bufferView" : 4,
            "type" : "VEC3"
        },
        {
            "componentType" : 5123,
            "count" : 264,
            "bufferView" : 5,
            "type" : "SCALAR"
        },
        {
            "componentType" : 5126,
            "count" : 4,
            "bufferView" : 6,
            "type" : "MAT4"
        },
        {
            "componentType" : 5126,
            "count" : 24,
            "bufferView" : 7,
            "type" : "VEC3"
        },
        {
            "count" : 24,
            "max" : [
                1,
                1,
                1
            ],
            "componentType" : 5126,
            "min" : [
                -1,
                -1,
                -1
            ],
            "bufferView" : 8,
            "type" : "VEC3"
        },
        {
            "componentType" : 5126,
            "count" : 24,
            "bufferView" : 9,
            "type" : "VEC2"
        },
        {
            "componentType" : 5123,
            "count" : 36,
            "bufferView" : 10,
            "type" : "SCALAR"
        },
        {
            "count" : 1,
            "max" : [
                0.041666666666666664
            ],
            "componentType" : 5126,
            "min" : [
                0.041666666666666664
            ],
            "bufferView" : 11,
            "type" : "SCALAR"
        },
        {
            "componentType" : 5126,
            "count" : 1,
            "bufferView" : 12,
            "type" : "VEC3"
        },
        {
            "componentType" : 5126,
            "count" : 1,
            "bufferView" : 13,
            "type" : "VEC3"
        },
        {
            "componentType" : 5126,
            "count" : 1,
            "bufferView" : 14,
            "type" : "VEC4"
        },
        {
            "componentType" : 5126,
            "count" : 1,
            "bufferView" : 15,
            "type" : "VEC3"
        },
        {
            "componentType" : 5126,
            "count" : 1,
            "bufferView" : 16,
            "type" : "VEC3"
        },
        {
            "componentType" : 5126,
            "count" : 1,
            "bufferView" : 17,
            "type" : "VEC4"
        },
        {
            "componentType" : 5126,
            "count" : 1,
            "bufferView" : 18,
            "type" : "VEC3"
        },
        {
            "componentType" : 5126,
            "count" : 1,
            "bufferView" : 19,
            "type" : "VEC3"
        },
        {
            "componentType" : 5126,
            "count" : 1,
            "bufferView" : 20,
            "type" : "VEC4"
        },
        {
            "componentType" : 5126,
            "count" : 1,
            "bufferView" : 21,
            "type" : "VEC3"
        },
        {
            "componentType" : 5126,
            "count" : 1,
            "bufferView" : 22,
            "type" : "VEC3"
        },
        {
            "componentType" : 5126,
            "count" : 1,
            "bufferView" : 23,
            "type" : "VEC4"
        }
    ],
    "bufferViews" : [
        {
            "byteOffset" : 0,
            "byteLength" : 1136,
            "buffer" : 0
        },
        {
            "byteOffset" : 1136,
            "byteLength" : 2272,
            "buffer" : 0
        },
        {
            "byteOffset" : 3408,
            "byteLength" : 1704,
            "buffer" : 0
        },
        {
            "byteOffset" : 5112,
            "byteLength" : 2272,
            "buffer" : 0
        },
        {
            "byteOffset" : 7384,
            "byteLength" : 1704,
            "buffer" : 0
        },
        {
            "byteOffset" : 9088,
            "byteLength" : 528,
            "buffer" : 0
        },
        {
            "byteOffset" : 9616,
            "byteLength" : 256,
            "buffer" : 0
        },
        {
            "byteOffset" : 9872,
            "byteLength" : 288,
            "buffer" : 0
        },
        {
            "byteOffset" : 10160,
            "byteLength" : 288,
            "buffer" : 0
        },
        {
            "byteOffset" : 10448,
            "byteLength" : 192,
            "buffer" : 0
        },
        {
            "byteOffset" : 10640,
            "byteLength" : 72,
            "buffer" : 0
        },
        {
            "byteOffset" : 10712,
            "byteLength" : 4,
            "buffer" : 0
        },
        {
            "byteOffset" : 10716,
            "byteLength" : 12,
            "buffer" : 0
        },
        {
            "byteOffset" : 10728,
            "byteLength" : 12,
            "buffer" : 0
        },
        {
            "byteOffset" : 10740,
            "byteLength" : 16,
            "buffer" : 0
        },
        {
            "byteOffset" : 10756,
            "byteLength" : 12,
            "buffer" : 0
        },
        {
            "byteOffset" : 10768,
            "byteLength" : 12,
            "buffer" : 0
        },
        {
            "byteOffset" : 10780,
            "byteLength" : 16,
            "buffer" : 0
        },
        {
            "byteOffset" : 10796,
            "byteLength" : 12,
            "buffer" : 0
        },
        {
            "byteOffset" : 10808,
            "byteLength" : 12,
            "buffer" : 0
        },
        {
            "byteOffset" : 10820,
            "byteLength" : 16,
            "buffer" : 0
        },
        {
            "byteOffset" : 10836,
            "byteLength" : 12,
            "buffer" : 0
        },
        {
            "byteOffset" : 10848,
            "byteLength" : 12,
            "buffer" : 0
        },
        {
            "byteOffset" : 10860,
            "byteLength" : 16,
            "buffer" : 0
        }
    ],
    "buffers" : [
        {
            "uri" : "data:application/octet-stream;base64,",
            "byteLength" : 10876
        }
    ]
}
